<?xml version="1.0" standalone="no"?>
<!DOCTYPE svg PUBLIC "-//W3C//DTD SVG 20010904//EN"
 "http://www.w3.org/TR/2001/REC-SVG-20010904/DTD/svg10.dtd">
<svg version="1.0" xmlns="http://www.w3.org/2000/svg"
 width="225.000000pt" height="225.000000pt" viewBox="0 0 225.000000 225.000000"
 preserveAspectRatio="xMidYMid meet">
<metadata>
Created by potrace 1.10, written by Peter Selinger 2001-2011
</metadata>
<g transform="translate(0.000000,225.000000) scale(0.100000,-0.100000)"
fill="#000000" stroke="none">
<path d="M567 2187 c-83 -27 -149 -111 -151 -192 -1 -58 38 -105 130 -152 41
-21 74 -41 74 -44 0 -4 -14 -9 -31 -13 -18 -3 -89 -24 -158 -47 l-127 -41 -18
-371 c-10 -205 -22 -459 -28 -565 l-9 -192 103 -111 c66 -71 108 -109 118
-105 19 5 319 112 343 121 15 6 17 0 17 -63 l0 -69 102 -109 c57 -60 109 -108
116 -106 7 2 95 35 195 74 100 39 261 100 357 135 348 129 445 165 464 170 18
6 18 21 14 437 l-5 431 -44 7 c-24 3 -75 7 -112 7 -38 1 -67 4 -65 9 2 4 12
24 23 44 10 21 17 40 14 42 -2 2 -99 -28 -216 -68 l-212 -72 -5 40 c-16 129
-20 182 -31 361 -8 142 -11 152 -43 158 -176 36 -169 33 -147 57 10 11 16 22
13 25 -2 2 -62 -13 -133 -34 -71 -22 -133 -38 -136 -35 -4 2 -10 15 -13 30
-17 67 -122 179 -207 221 -56 28 -141 37 -192 20z m175 -38 c61 -31 163 -133
193 -192 14 -28 24 -52 22 -53 -1 -2 -69 -23 -151 -49 l-149 -46 -93 46 c-60
30 -102 58 -115 77 -20 28 -21 35 -10 80 32 142 170 205 303 137z m468 -199
c0 -17 -43 -38 -125 -60 -43 -12 -85 -24 -92 -27 -8 -3 -13 2 -13 14 0 16 19
25 108 50 128 37 122 35 122 23z m76 -45 c92 -14 84 -21 -76 -73 -85 -28 -168
-55 -185 -61 -57 -20 -350 -113 -370 -117 -11 -2 -58 -17 -105 -33 -47 -15
-87 -27 -89 -25 -2 2 8 21 22 43 21 32 36 42 81 55 30 9 58 21 61 26 9 14 -12
12 -69 -5 -49 -15 -186 -21 -173 -8 4 4 56 21 115 38 59 17 117 35 129 39 18
6 26 1 41 -23 14 -23 21 -28 30 -19 13 13 16 32 4 24 -4 -2 -13 4 -20 14 -10
17 -8 20 26 29 20 6 86 26 145 45 62 19 110 30 113 24 9 -13 0 -19 -57 -39
-53 -19 -65 -26 -58 -33 2 -3 29 5 59 16 30 11 82 26 115 33 33 7 89 25 125
39 36 14 70 23 76 21 6 -2 33 -7 60 -10z m108 -72 c6 -37 15 -135 21 -223 2
-25 8 -94 14 -154 7 -60 8 -112 4 -116 -12 -11 -286 -100 -291 -95 -10 9 -22
212 -20 310 2 80 0 100 -11 100 -11 0 -13 -21 -11 -105 2 -58 3 -154 4 -214
l1 -108 -135 -47 -135 -46 -3 -58 c-2 -31 -7 -57 -12 -57 -27 0 -32 49 -29
288 3 163 1 246 -6 249 -7 2 -11 -45 -12 -134 -1 -76 -3 -190 -4 -253 -2 -119
9 -167 46 -188 13 -7 15 -41 13 -242 l-3 -234 -175 -67 c-96 -37 -176 -66
-176 -65 -2 1 -16 496 -18 621 -1 50 -6 198 -10 330 l-9 240 104 32 c57 17
118 36 134 42 48 17 185 61 255 82 36 10 151 48 255 83 105 35 193 65 197 65
3 1 9 -16 12 -36z m-914 -165 c0 -6 -16 -26 -35 -44 -21 -19 -31 -35 -25 -39
7 -4 7 -11 2 -18 -5 -7 -6 -84 -1 -187 5 -96 11 -296 14 -445 3 -148 7 -334 9
-412 l4 -142 -47 52 c-26 29 -64 71 -85 94 l-37 41 34 21 c19 12 38 21 43 21
5 0 25 14 44 30 47 40 36 38 -54 -11 l-76 -41 0 69 c0 37 6 156 14 263 8 107
20 322 27 476 l12 282 36 -5 c20 -3 52 -1 71 5 37 10 50 7 50 -10z m1374 -241
c-15 -32 -42 -49 -96 -63 -16 -3 -28 -10 -28 -14 0 -4 26 0 58 9 44 14 77 16
147 12 50 -3 85 -9 78 -14 -13 -9 -348 -128 -443 -159 -36 -11 -74 -24 -85
-29 -26 -11 -471 -159 -478 -159 -7 0 54 113 67 123 6 4 -33 5 -87 2 -67 -4
-97 -2 -92 5 3 5 12 10 19 10 6 0 219 69 472 154 252 85 465 155 471 155 9 1
8 -8 -3 -32z m205 -478 c1 -215 5 -397 7 -404 5 -12 -163 -82 -406 -168 -69
-25 -232 -86 -364 -136 -131 -50 -241 -89 -244 -87 -4 5 -29 276 -38 406 -1
30 -10 134 -18 230 -9 96 -13 177 -8 181 4 3 50 21 102 39 52 18 158 54 235
82 77 27 160 56 185 64 51 17 36 12 310 109 113 41 212 74 221 74 14 1 16 -42
18 -390z m-1035 149 c-9 -31 -33 -77 -55 -108 -15 -21 -17 -33 -9 -70 4 -25
14 -110 21 -190 7 -80 13 -156 15 -170 1 -14 7 -104 14 -200 6 -96 13 -181 16
-188 7 -24 -10 -9 -91 76 l-79 84 34 29 c19 16 40 29 45 29 14 0 73 49 60 50
-5 0 -39 -18 -75 -40 -36 -22 -67 -40 -70 -40 -3 0 -6 171 -6 380 l-2 380 95
0 c93 0 94 0 87 -22z"/>
<path d="M1693 1353 c-34 -7 -36 -30 -2 -25 16 2 29 10 29 18 0 8 -1 13 -2 13
-2 -1 -13 -4 -25 -6z"/>
<path d="M1508 1287 c-21 -6 -38 -14 -38 -19 0 -11 28 -10 35 2 3 6 15 10 26
10 10 0 19 5 19 10 0 6 -1 9 -2 9 -2 -1 -20 -6 -40 -12z"/>
<path d="M1331 1229 c-13 -5 -21 -12 -18 -15 8 -9 67 6 67 17 0 11 -18 11 -49
-2z"/>
<path d="M1204 1185 c-10 -8 -30 -15 -44 -15 -23 -1 -86 -29 -66 -30 16 0 91
23 101 32 5 4 17 8 27 8 10 0 18 5 18 10 0 14 -13 12 -36 -5z"/>
<path d="M1757 948 c-6 -196 -27 -280 -80 -322 -17 -14 -39 -33 -47 -41 -26
-24 -93 -29 -129 -10 -18 9 -35 14 -38 11 -3 -2 10 -12 28 -21 38 -20 126 -16
143 6 6 8 28 26 48 41 41 31 78 114 78 173 0 19 4 35 9 35 13 0 1 -90 -20
-137 -36 -85 -98 -141 -164 -149 -11 -1 -24 -3 -30 -5 -5 -2 -30 0 -54 4 -66
11 -111 67 -111 138 0 18 -5 29 -14 29 -11 0 -12 -10 -5 -47 5 -26 12 -49 17
-52 4 -4 8 -13 10 -21 18 -85 205 -93 294 -12 39 36 73 91 89 145 4 16 9 111
10 211 1 151 -2 181 -14 184 -12 2 -15 -25 -20 -160z"/>
<path d="M1332 968 c2 -7 10 -34 17 -60 14 -50 31 -64 31 -25 0 42 -21 97 -36
97 -9 0 -14 -6 -12 -12z"/>
<path d="M1362 783 c2 -47 7 -67 15 -66 7 2 16 -9 19 -25 8 -33 34 -85 39 -80
3 2 -7 31 -20 64 -14 32 -25 75 -25 94 0 45 -10 80 -22 80 -5 0 -8 -30 -6 -67z"/>
</g>
</svg>
