<?xml version="1.0" standalone="no"?>
<!DOCTYPE svg PUBLIC "-//W3C//DTD SVG 20010904//EN"
 "http://www.w3.org/TR/2001/REC-SVG-20010904/DTD/svg10.dtd">
<svg version="1.0" xmlns="http://www.w3.org/2000/svg"
 width="1024.000000pt" height="768.000000pt" viewBox="0 0 1024.000000 768.000000"
 preserveAspectRatio="xMidYMid meet">

<g transform="translate(0.000000,768.000000) scale(0.100000,-0.100000)"
fill="#000000" stroke="none">
<path d="M4988 5480 c-361 -27 -726 -169 -982 -383 -77 -65 -76 -65 -367 125
-140 91 -264 171 -277 177 -36 19 -89 -3 -110 -45 -31 -67 10 -644 68 -949
147 -766 487 -1359 1025 -1787 172 -137 471 -308 683 -392 l92 -37 93 37 c211
84 510 255 682 392 538 428 878 1021 1025 1787 36 191 59 402 72 662 11 229
10 256 -4 287 -21 42 -74 64 -110 45 -13 -6 -137 -86 -277 -177 -291 -190
-290 -190 -367 -125 -323 270 -797 416 -1246 383z m-835 -909 c249 -64 492
-206 614 -360 91 -115 132 -244 153 -476 14 -149 28 -202 65 -251 31 -40 92
-74 135 -74 43 0 104 34 135 74 37 49 51 102 65 251 13 144 38 265 70 339 86
201 323 380 626 475 195 61 230 55 219 -38 -19 -165 -86 -331 -179 -447 -75
-93 -170 -166 -297 -227 -76 -36 -108 -57 -109 -69 0 -22 -11 -21 248 -7 153
9 206 9 215 0 24 -24 18 -26 -285 -95 -110 -26 -117 -29 -127 -56 -8 -23 -6
-33 7 -50 16 -19 23 -20 157 -12 77 5 144 5 149 1 25 -21 -12 -37 -170 -73
-93 -22 -178 -45 -190 -51 -11 -7 -41 -49 -67 -93 -26 -45 -61 -97 -79 -118
-31 -35 -34 -36 -81 -31 -27 4 -99 27 -160 53 -62 26 -128 47 -147 47 -19 0
-85 -21 -147 -47 -61 -26 -133 -49 -160 -53 -47 -5 -50 -4 -81 31 -18 21 -53
73 -79 118 -26 44 -56 86 -67 93 -12 6 -97 29 -190 51 -158 36 -195 52 -170
73 5 4 72 4 149 -1 134 -8 141 -7 157 12 13 17 15 27 7 50 -10 27 -17 30 -127
56 -303 69 -309 71 -285 95 9 9 62 9 215 0 259 -14 248 -15 248 7 -1 12 -33
33 -109 69 -60 29 -139 76 -176 106 -164 132 -270 331 -300 565 -11 87 12 97
148 63z m1061 -1402 c147 -69 143 -145 -10 -221 l-86 -42 -84 43 c-108 55
-137 103 -98 160 20 28 148 91 185 91 15 0 57 -14 93 -31z"/>
</g>
</svg>
