<?xml version="1.0" encoding="UTF-8" standalone="no"?>
<svg
   xmlns:dc="http://purl.org/dc/elements/1.1/"
   xmlns:cc="http://creativecommons.org/ns#"
   xmlns:rdf="http://www.w3.org/1999/02/22-rdf-syntax-ns#"
   xmlns:svg="http://www.w3.org/2000/svg"
   xmlns="http://www.w3.org/2000/svg"
   xmlns:sodipodi="http://sodipodi.sourceforge.net/DTD/sodipodi-0.dtd"
   xmlns:inkscape="http://www.inkscape.org/namespaces/inkscape"
   version="1.1"
   width="335.30267"
   height="119.5"
   viewBox="135.5 361.375 335.30267 119.5"
   overflow="visible"
   enable-background="new 135.5 361.375 200 72"
   xml:space="preserve"
   id="svg4"
   sodipodi:docname="Logo_NIKE.svg"
   inkscape:version="1.0.1 (3bc2e813f5, 2020-09-07)"><metadata
   id="metadata10"><rdf:RDF><cc:Work
       rdf:about=""><dc:format>image/svg+xml</dc:format><dc:type
         rdf:resource="http://purl.org/dc/dcmitype/StillImage" /></cc:Work></rdf:RDF></metadata><defs
   id="defs8" /><sodipodi:namedview
   pagecolor="#ffffff"
   bordercolor="#666666"
   borderopacity="1"
   objecttolerance="10"
   gridtolerance="10"
   guidetolerance="10"
   inkscape:pageopacity="0"
   inkscape:pageshadow="2"
   inkscape:window-width="1600"
   inkscape:window-height="837"
   id="namedview6"
   showgrid="false"
   inkscape:zoom="5.21"
   inkscape:cx="120.15717"
   inkscape:cy="58.266629"
   inkscape:window-x="-8"
   inkscape:window-y="-8"
   inkscape:window-maximized="1"
   inkscape:current-layer="svg4"
   inkscape:document-rotation="0" />
<path
   d="m 172.48641,480.82643 c -9.99065,-0.39692 -18.16449,-3.13063 -24.55576,-8.20808 -1.21975,-0.96997 -4.12628,-3.87823 -5.10137,-5.1048 -2.59176,-3.25894 -4.35382,-6.43062 -5.5291,-9.9496 -3.61645,-10.8323 -1.7552,-25.04672 5.3238,-40.64682 6.06111,-13.35563 15.41364,-26.6018 31.73051,-44.94761 2.40355,-2.69954 9.56124,-10.59452 9.60744,-10.59452 0.0172,0 -0.37292,0.67573 -0.8639,1.49862 -4.24259,7.10633 -7.87275,15.47689 -9.85036,22.72354 -3.17681,11.6278 -2.79362,21.60647 1.12223,29.34404 2.70123,5.33064 7.33219,9.94791 12.53963,12.50028 9.11645,4.46673 22.46354,4.83625 38.76332,1.08122 1.12224,-0.26005 56.73107,-15.02189 123.57594,-32.80488 66.84489,-17.78471 121.54533,-32.32417 121.55389,-32.3122 0.0189,0.0154 -155.29963,66.47709 -235.92783,100.95676 -12.76889,5.45894 -16.18348,6.83775 -22.1864,8.94539 -15.34519,5.38876 -29.09089,7.96001 -40.20204,7.51866 z"
   id="path2"
   style="stroke-width:1.71074" />
</svg>
